<?xml version="1.0" encoding="UTF-8" standalone="no"?>
<svg
   xmlns:dc="http://purl.org/dc/elements/1.1/"
   xmlns:cc="http://creativecommons.org/ns#"
   xmlns:rdf="http://www.w3.org/1999/02/22-rdf-syntax-ns#"
   xmlns:svg="http://www.w3.org/2000/svg"
   xmlns="http://www.w3.org/2000/svg"
   xmlns:sodipodi="http://sodipodi.sourceforge.net/DTD/sodipodi-0.dtd"
   xmlns:inkscape="http://www.inkscape.org/namespaces/inkscape"
   width="48"
   height="48"
   viewBox="0 0 12.7 12.700001"
   version="1.1"
   id="svg8"
   inkscape:version="1.0.2 (e86c870, 2021-01-15)"
   sodipodi:docname="response_icon (48).svg"
   inkscape:export-filename="/home/solairaj/response icon 48.png"
   inkscape:export-xdpi="96"
   inkscape:export-ydpi="96">
  <defs
     id="defs2">
    <filter
       style="color-interpolation-filters:sRGB"
       inkscape:label="Drop Shadow"
       id="filter1126">
      <feFlood
         flood-opacity="0.498039"
         flood-color="rgb(0,0,0)"
         result="flood"
         id="feFlood1116" />
      <feComposite
         in="flood"
         in2="SourceGraphic"
         operator="out"
         result="composite1"
         id="feComposite1118" />
      <feGaussianBlur
         in="composite1"
         stdDeviation="3"
         result="blur"
         id="feGaussianBlur1120" />
      <feOffset
         dx="0.220847"
         dy="-1.82013"
         result="offset"
         id="feOffset1122" />
      <feComposite
         in="offset"
         in2="SourceGraphic"
         operator="atop"
         result="composite2"
         id="feComposite1124" />
    </filter>
    <filter
       style="color-interpolation-filters:sRGB"
       inkscape:label="Drop Shadow"
       id="filter1258">
      <feFlood
         flood-opacity="0.498039"
         flood-color="rgb(0,0,0)"
         result="flood"
         id="feFlood1248" />
      <feComposite
         in="flood"
         in2="SourceGraphic"
         operator="out"
         result="composite1"
         id="feComposite1250" />
      <feGaussianBlur
         in="composite1"
         stdDeviation="1.5"
         result="blur"
         id="feGaussianBlur1252" />
      <feOffset
         dx="0"
         dy="-1"
         result="offset"
         id="feOffset1254" />
      <feComposite
         in="offset"
         in2="SourceGraphic"
         operator="atop"
         result="composite2"
         id="feComposite1256" />
    </filter>
    <filter
       style="color-interpolation-filters:sRGB"
       inkscape:label="Drop Shadow"
       id="filter1330">
      <feFlood
         flood-opacity="0.498039"
         flood-color="rgb(0,0,0)"
         result="flood"
         id="feFlood1320" />
      <feComposite
         in="flood"
         in2="SourceGraphic"
         operator="out"
         result="composite1"
         id="feComposite1322" />
      <feGaussianBlur
         in="composite1"
         stdDeviation="1.5"
         result="blur"
         id="feGaussianBlur1324" />
      <feOffset
         dx="0"
         dy="-1.5"
         result="offset"
         id="feOffset1326" />
      <feComposite
         in="offset"
         in2="SourceGraphic"
         operator="atop"
         result="composite2"
         id="feComposite1328" />
    </filter>
    <filter
       inkscape:collect="always"
       style="color-interpolation-filters:sRGB"
       id="filter1057"
       x="-0.047978416"
       width="1.0959568"
       y="-1.5663635"
       height="4.1327267">
      <feGaussianBlur
         inkscape:collect="always"
         stdDeviation="2.1226805"
         id="feGaussianBlur1059" />
    </filter>
  </defs>
  <sodipodi:namedview
     id="base"
     pagecolor="#ffffff"
     bordercolor="#666666"
     borderopacity="1.0"
     inkscape:pageopacity="0"
     inkscape:pageshadow="2"
     inkscape:zoom="4"
     inkscape:cx="46.104248"
     inkscape:cy="-28.027112"
     inkscape:document-units="px"
     inkscape:current-layer="layer1"
     inkscape:document-rotation="0"
     showgrid="true"
     inkscape:window-width="1366"
     inkscape:window-height="705"
     inkscape:window-x="0"
     inkscape:window-y="30"
     inkscape:window-maximized="1"
     inkscape:pagecheckerboard="true"
     units="px"
     inkscape:snap-nodes="true"
     showguides="false">
    <inkscape:grid
       type="xygrid"
       id="grid833" />
  </sodipodi:namedview>
  <metadata
     id="metadata5">
    <rdf:RDF>
      <cc:Work
         rdf:about="">
        <dc:format>image/svg+xml</dc:format>
        <dc:type
           rdf:resource="http://purl.org/dc/dcmitype/StillImage" />
        <dc:title />
      </cc:Work>
    </rdf:RDF>
  </metadata>
  <g
     inkscape:label="Layer 1"
     inkscape:groupmode="layer"
     id="layer1">
    <g
       id="g1079"
       transform="matrix(0.09776403,0,0,0.09776403,-0.20439559,0.21441918)">
      <g
         id="g933"
         transform="matrix(1.1368131,0,0,1.1368131,-25.606763,-15.884311)">
        <path
           id="rect1338"
           style="fill:#333333;fill-opacity:1;stroke:none;stroke-width:0.343602"
           d="m 41.387217,94.85171 h 84.257893 c 1.53043,0 2.18076,1.373413 2.76255,2.735149 l 6.44327,15.081211 c 0.58177,1.36174 -0.37145,3.00816 -1.90191,3.01323 l -102.288371,0.33902 c -1.530447,0.005 -1.819395,-1.65043 -1.084189,-2.91164 l 9.048204,-15.521821 c 0.7352,-1.261204 1.232098,-2.735149 2.762553,-2.735149 z"
           sodipodi:nodetypes="sssssssss" />
        <rect
           style="fill:#f2f2f2;stroke:#333333;stroke-width:1.70947;stroke-miterlimit:4;stroke-dasharray:none;stroke-opacity:1"
           id="rect862"
           width="88.892342"
           height="61.540859"
           x="39.335854"
           y="31.94327"
           ry="6.837873" />
        <rect
           style="fill:#f2f2f2;stroke:#202025;stroke-width:1.70947;stroke-miterlimit:4;stroke-dasharray:none;stroke-opacity:1"
           id="rect864"
           width="27.351492"
           height="47.865112"
           x="97.428017"
           y="60.660061"
           ry="6.837873" />
        <path
           style="fill:none;stroke:#333333;stroke-width:0.341894px;stroke-linecap:butt;stroke-linejoin:miter;stroke-opacity:1"
           d="M 97.428012,101.6873 H 124.7795"
           id="path866" />
        <path
           style="fill:#202025;fill-opacity:1;stroke:none;stroke-width:0.341894px;stroke-linecap:butt;stroke-linejoin:miter;stroke-opacity:1"
           d="m 97.428012,101.6873 1.709459,5.1284 5.128409,1.70947 h 6.83787 8.54734 l 3.41895,-1.70947 1.70946,-3.41893 v -1.70947 z"
           id="path879" />
        <path
           style="fill:#202025;fill-opacity:1;stroke:none;stroke-width:0.287182px;stroke-linecap:butt;stroke-linejoin:miter;stroke-opacity:1"
           d="m 124.80926,66.132643 -1.71317,-3.610504 -5.13961,-1.203497 h -6.8528 -8.56599 l -3.426412,1.203497 -1.713193,2.407009 v 1.203495 z"
           id="path881" />
        <g
           id="g905"
           transform="matrix(0.03790394,0,0,0.03790394,74.116521,52.094535)">
          <path
             fill="#e34f26"
             d="M 71,460 30,0 h 451 l -41,460 -185,52"
             id="path885" />
          <path
             fill="#ef652a"
             d="M 256,472 405,431 440,37 H 256"
             id="path887" />
          <path
             fill="#ebebeb"
             d="m 256,208 h -75 l -5,-58 h 80 V 94 h -1 -141 l 1,15 14,156 h 127 z m 0,147 h -1 l -63,-17 -4,-45 h -30 -26 l 7,89 116,32 h 1 z"
             id="path889" />
          <path
             fill="#ffffff"
             d="m 255,208 v 57 h 70 l -7,73 -63,17 v 59 l 116,-32 1,-10 13,-149 2,-15 h -16 z m 0,-114 v 35 21 0 h 137 v 0 0 l 1,-12 3,-29 1,-15 z"
             id="path891" />
        </g>
        <g
           id="g915"
           transform="matrix(0.01895197,0,0,0.01895197,106.4395,79.016955)">
          <path
             fill="#e34f26"
             d="M 71,460 30,0 h 451 l -41,460 -185,52"
             id="path907" />
          <path
             fill="#ef652a"
             d="M 256,472 405,431 440,37 H 256"
             id="path909" />
          <path
             fill="#ebebeb"
             d="m 256,208 h -75 l -5,-58 h 80 V 94 h -1 -141 l 1,15 14,156 h 127 z m 0,147 h -1 l -63,-17 -4,-45 h -30 -26 l 7,89 116,32 h 1 z"
             id="path911" />
          <path
             fill="#ffffff"
             d="m 255,208 v 57 h 70 l -7,73 -63,17 v 59 l 116,-32 1,-10 13,-149 2,-15 h -16 z m 0,-114 v 35 21 0 h 137 v 0 0 l 1,-12 3,-29 1,-15 z"
             id="path913" />
        </g>
      </g>
      <ellipse
         style="opacity:0.506971;fill:#202025;fill-opacity:1;stroke:none;stroke-width:1.03885;stroke-miterlimit:4;stroke-dasharray:none;stroke-opacity:1;filter:url(#filter1057)"
         id="path935"
         cx="68.646828"
         cy="118.42144"
         rx="53.090885"
         ry="1.6261977"
         transform="matrix(1.1368131,0,0,1.1368131,-10.995591,-14.551745)" />
    </g>
  </g>
</svg>
